<?xml version="1.0" encoding="utf-8"?>
<!-- Generator: Adobe Illustrator 19.0.0, SVG Export Plug-In . SVG Version: 6.00 Build 0)  -->
<!DOCTYPE svg PUBLIC "-//W3C//DTD SVG 1.1//EN" "http://www.w3.org/Graphics/SVG/1.1/DTD/svg11.dtd">
<svg version="1.1" id="Layer_1" xmlns="http://www.w3.org/2000/svg" xmlns:xlink="http://www.w3.org/1999/xlink" x="0px" y="0px"
	 viewBox="-229 171 200 200" style="enable-background:new -229 171 200 200;" xml:space="preserve">
<g id="XMLID_17_">
	<g id="XMLID_134_">
		<g id="XMLID_135_">
			<path id="XMLID_145_" d="M-191,278.2c-0.8,0.5-1.3,1.3-1.3,2.2c0,2.2,1.3,3.5,3.8,3.5c1.4,0,2.7-0.5,3.8-1.6
				c1.1-1.1,1.6-2.4,1.6-4.1c-1.7-0.5-3.3-0.8-4.7-0.8C-189.1,277.4-190.2,277.7-191,278.2z"/>
			<path id="XMLID_144_" d="M-119.6,278.2c-0.8,0.5-1.3,1.3-1.3,2.2c0,2.2,1.3,3.5,3.8,3.5c1.4,0,2.7-0.5,3.8-1.6
				c1.1-1.1,1.6-2.4,1.6-4.1c-1.7-0.5-3.3-0.8-4.7-0.8C-117.6,277.4-118.7,277.7-119.6,278.2z"/>
			<path id="XMLID_137_" d="M-129.5,174c-52.7,0-95.5,42.8-95.5,95.5s42.8,95.5,95.5,95.5S-34,322.2-34,269.5S-76.8,174-129.5,174z
				 M-180.2,285.7h-2.5l-0.3-3c-1.1,2.4-3.1,3.5-6,3.5c-1.9,0-3.5-0.5-4.7-1.6c-1.1-1.1-1.7-2.4-1.7-4.1c0-1.6,0.6-2.8,1.9-3.8
				c1.3-0.9,3-1.4,4.9-1.4c1.9,0,3.8,0.3,5.5,0.9v-2.4c0-1.6-0.3-2.8-0.9-3.5c-0.6-0.6-1.7-1.1-3-1.1s-2.4,0.3-3.1,0.8
				c-0.8,0.5-1.3,1.3-1.3,2.4h-3.3c0-2.8,1.4-4.4,4.4-5.2c0.9-0.2,1.9-0.3,3-0.3c2.2,0,3.9,0.6,5.2,1.7s1.9,2.8,1.9,5.2v11.8H-180.2
				z M-137.4,285.7h-3v-10.5c0-1.7-0.5-3-1.3-3.9c-0.8-0.9-2-1.3-3.5-1.3c-1.6,0-2.7,0.6-3.6,1.9c-0.8,1.3-1.3,3-1.3,5.2v8.8h-3
				v-10.5c0-1.7-0.5-3-1.3-3.9c-0.8-0.9-2-1.3-3.5-1.3s-2.7,0.6-3.6,1.9c-0.9,1.3-1.4,3-1.4,5.2v8.8h-3v-18.4h2.5l0.3,3.5
				c1.3-2.7,3.1-3.9,6.1-3.9c1.6,0,2.8,0.3,3.9,1.1c1.1,0.8,1.9,1.9,2.4,3.1c1.1-2.8,3.3-4.4,6.3-4.4c2.2,0,3.8,0.6,5,2
				c1.3,1.4,1.7,3.3,1.7,5.8L-137.4,285.7L-137.4,285.7z M-108.7,285.7h-2.5l-0.3-3c-1.1,2.4-3.1,3.5-6,3.5c-1.9,0-3.5-0.5-4.7-1.6
				c-1.1-1.1-1.7-2.4-1.7-4.1c0-1.6,0.6-2.8,1.9-3.8c1.3-0.9,3-1.4,4.9-1.4c1.9,0,3.8,0.3,5.5,0.9v-2.4c0-1.6-0.3-2.8-0.9-3.5
				c-0.6-0.6-1.7-1.1-3-1.1c-1.3,0-2.4,0.3-3.1,0.8c-0.8,0.5-1.3,1.3-1.3,2.4h-3.3c0-2.8,1.4-4.4,4.4-5.2c0.9-0.2,1.9-0.3,3-0.3
				c2.2,0,3.9,0.6,5.2,1.7s1.9,2.8,1.9,5.2v11.8H-108.7z M-84.4,270.6c-0.8-0.3-1.6-0.3-2.4-0.3c-2.8,0-4.2,2.2-4.4,6.8v8.8h-3
				v-18.3h3v3.5c0.9-2.5,2.5-3.8,4.7-3.8c0.8,0,1.4,0.2,2,0.3V270.6z M-65.6,286.2c-2.5,0-4.6-0.8-6.1-2.5c-1.6-1.7-2.4-3.9-2.4-6.9
				s0.8-5.3,2.4-7.1c1.6-1.6,3.6-2.5,6.1-2.5c2.5,0,4.6,0.8,6.1,2.5c1.6,1.6,2.4,3.9,2.4,7.1c0,3-0.8,5.3-2.4,6.9
				S-63.1,286.2-65.6,286.2z"/>
			<path id="XMLID_136_" d="M-65.6,269.8c-1.7,0-3.1,0.6-4.1,1.9c-0.9,1.3-1.4,2.8-1.4,5c0,2.2,0.5,3.8,1.3,5
				c0.9,1.3,2.2,1.9,3.9,1.9s3.1-0.6,4.1-1.9s1.4-2.8,1.4-5c0-2.2-0.5-3.8-1.4-5C-62.5,270.4-63.9,269.8-65.6,269.8z"/>
		</g>
	</g>
</g>
</svg>
